# xmcd
#
# Track frame offsets:
#	150
#	19133
#	35469
#	53806
#	70622
#	87486
#	107266
#	126545
#	146272
#	169204
#	187714
#	202536
#	223442
#	238839
#	255114
#	268720
#	283279
#	301795
#	320569
#	335772
#
# Disc length: 4675
#
# Revision: 3
# Processed by: cddbd v1.5.1PL0 Copyright (c) Steve Scherf et al.
# Submitted via: CDex 1.50
# Normalized: r2:DSETVAR1,TDELIM( - )
#
DISCID=21124114
DTITLE=Various Artist - Ultimate Rap CD 2
DYEAR=2004
DGENRE=Blues
TTITLE0=2 Pac feat. K-Ci and Jojo - How Do U Want It
TTITLE1=Slumvillage feat. Busta Rhymes - What's It All About
TTITLE2=Luniz - I Got 5 On It
TTITLE3=Ice Cube feat. Das EFX - Check Yo Self
TTITLE4=Akhenaton - Bad Boys De Marseille
TTITLE5=Saian Supa Crew - A Demie Nue
TTITLE6=Pit Baccardi - Si Loin De Toi
TTITLE7=Arsenik - Boxe Avec Les Mots
TTITLE8=Assassin - Sérieux Dans Nos Affaires
TTITLE9=Snoop Doggy Dogg feat. Nate Dogg, Kurupt and Warren G - Ain't No Fun
TTITLE10=West Side Connection - Bow Down
TTITLE11=Jodeci feat - That Dogg Pound - Come Up To My Bedroom
TTITLE12=Master P - My Babooski
TTITLE13=MC Lyte - Ride Wit Me
TTITLE14=Tre Hardson - Stay Around
TTITLE15=Mantronix - Make It Funky
TTITLE16=Mack 10 feat. Snoop Dogg - LBC And The ING
TTITLE17=Pac - Skandalouz
TTITLE18=Dogg Pound - What Would You Do
TTITLE19=NWA - Straight Outta Compton
EXTD=YEAR: 2004
EXTT0=
EXTT1=
EXTT2=
EXTT3=
EXTT4=
EXTT5=
EXTT6=
EXTT7=
EXTT8=
EXTT9=
EXTT10=
EXTT11=
EXTT12=
EXTT13=
EXTT14=
EXTT15=
EXTT16=
EXTT17=
EXTT18=
EXTT19=
PLAYORDER=
